<svg width="1108" height="505" viewBox="0 0 1108 505" fill="none" xmlns="http://www.w3.org/2000/svg">
<g clip-path="url(#clip0_1137_7705)">
<rect width="1108" height="505" fill="white"/>
<line x1="168" y1="329.601" x2="1096" y2="329.601" stroke="#CFCFCF" stroke-width="0.797059"/>
<line x1="168" y1="425.601" x2="1096" y2="425.601" stroke="#CFCFCF" stroke-width="0.797059"/>
<line x1="168" y1="233.601" x2="1096" y2="233.601" stroke="#CFCFCF" stroke-width="0.797059"/>
<line x1="168" y1="138.601" x2="1096" y2="138.601" stroke="#CFCFCF" stroke-width="0.797059"/>
<line x1="168" y1="42.6015" x2="1096" y2="42.6015" stroke="#CFCFCF" stroke-width="0.797059"/>
<path d="M24.108 337V322.72H34.828V337H33.048V324.3H25.908V337H24.108ZM47.8169 331.62C47.8169 332.513 47.6969 333.307 47.4569 334C47.2302 334.68 46.8969 335.26 46.4569 335.74C46.0302 336.22 45.5035 336.587 44.8769 336.84C44.2635 337.08 43.5769 337.2 42.8169 337.2C42.1102 337.2 41.4569 337.08 40.8569 336.84C40.2569 336.587 39.7369 336.22 39.2969 335.74C38.8569 335.26 38.5102 334.68 38.2569 334C38.0169 333.307 37.8969 332.513 37.8969 331.62C37.8969 330.433 38.0969 329.433 38.4969 328.62C38.8969 327.793 39.4702 327.167 40.2169 326.74C40.9635 326.3 41.8502 326.08 42.8769 326.08C43.8502 326.08 44.7035 326.3 45.4369 326.74C46.1835 327.167 46.7635 327.793 47.1769 328.62C47.6035 329.433 47.8169 330.433 47.8169 331.62ZM39.7169 331.62C39.7169 332.46 39.8235 333.193 40.0369 333.82C40.2635 334.433 40.6102 334.907 41.0769 335.24C41.5435 335.573 42.1369 335.74 42.8569 335.74C43.5769 335.74 44.1702 335.573 44.6369 335.24C45.1035 334.907 45.4435 334.433 45.6569 333.82C45.8835 333.193 45.9969 332.46 45.9969 331.62C45.9969 330.767 45.8835 330.04 45.6569 329.44C45.4302 328.84 45.0835 328.38 44.6169 328.06C44.1635 327.727 43.5702 327.56 42.8369 327.56C41.7435 327.56 40.9502 327.92 40.4569 328.64C39.9635 329.36 39.7169 330.353 39.7169 331.62ZM59.6663 326.28V337H57.9063V327.78H52.3663V337H50.6063V326.28H59.6663ZM63.0867 337V326.28H64.8467V330.68H67.6267C68.5601 330.68 69.3267 330.793 69.9267 331.02C70.5267 331.247 70.9734 331.587 71.2667 332.04C71.5601 332.48 71.7067 333.04 71.7067 333.72C71.7067 334.387 71.5601 334.967 71.2667 335.46C70.9867 335.953 70.5401 336.333 69.9267 336.6C69.3267 336.867 68.5334 337 67.5467 337H63.0867ZM67.3867 335.58C68.1467 335.58 68.7667 335.453 69.2467 335.2C69.7267 334.933 69.9667 334.473 69.9667 333.82C69.9667 333.167 69.7467 332.727 69.3067 332.5C68.8667 332.26 68.2334 332.14 67.4067 332.14H64.8467V335.58H67.3867ZM73.4867 337V326.28H75.2467V337H73.4867ZM86.0531 327.76H82.5531V337H80.8131V327.76H77.3531V326.28H86.0531V327.76ZM94.5048 326.28H96.4248L91.8448 331.44L96.8048 337H94.7648L89.9248 331.56V337H88.1648V326.28H89.9248V331.48L94.5048 326.28ZM102.811 326.1C104.117 326.1 105.084 326.387 105.711 326.96C106.337 327.533 106.651 328.447 106.651 329.7V337H105.371L105.031 335.48H104.951C104.644 335.867 104.324 336.193 103.991 336.46C103.671 336.713 103.297 336.9 102.871 337.02C102.457 337.14 101.951 337.2 101.351 337.2C100.711 337.2 100.131 337.087 99.6108 336.86C99.1041 336.633 98.7041 336.287 98.4108 335.82C98.1174 335.34 97.9708 334.74 97.9708 334.02C97.9708 332.953 98.3908 332.133 99.2308 331.56C100.071 330.973 101.364 330.653 103.111 330.6L104.931 330.54V329.9C104.931 329.007 104.737 328.387 104.351 328.04C103.964 327.693 103.417 327.52 102.711 327.52C102.151 327.52 101.617 327.607 101.111 327.78C100.604 327.94 100.131 328.127 99.6908 328.34L99.1508 327.02C99.6174 326.767 100.171 326.553 100.811 326.38C101.451 326.193 102.117 326.1 102.811 326.1ZM103.331 331.82C101.997 331.873 101.071 332.087 100.551 332.46C100.044 332.833 99.7908 333.36 99.7908 334.04C99.7908 334.64 99.9708 335.08 100.331 335.36C100.704 335.64 101.177 335.78 101.751 335.78C102.657 335.78 103.411 335.533 104.011 335.04C104.611 334.533 104.911 333.76 104.911 332.72V331.76L103.331 331.82ZM114.354 324.2V322.54H118.114V337H116.274V324.2H114.354Z" fill="#635D5D"/>
<path d="M232.851 466.305C234.487 466.305 235.678 466.661 236.425 467.372C237.183 468.071 237.563 469.038 237.563 470.27C237.563 470.827 237.48 471.361 237.314 471.87C237.148 472.368 236.869 472.819 236.478 473.222C236.099 473.613 235.595 473.921 234.967 474.146C234.338 474.371 233.562 474.484 232.638 474.484H231.482V479H228.797V466.305H232.851ZM232.709 468.51H231.482V472.279H232.371C232.881 472.279 233.319 472.214 233.687 472.084C234.054 471.953 234.338 471.746 234.54 471.461C234.741 471.177 234.842 470.81 234.842 470.359C234.842 469.731 234.67 469.269 234.327 468.972C233.983 468.664 233.444 468.51 232.709 468.51ZM239.001 468.332V466.039H243.286V479H240.726V468.332H239.001Z" fill="#635D5D"/>
<path d="M686.351 466.305C687.986 466.305 689.178 466.661 689.924 467.372C690.683 468.071 691.062 469.038 691.062 470.27C691.062 470.827 690.979 471.361 690.813 471.87C690.647 472.368 690.369 472.819 689.978 473.222C689.598 473.613 689.095 473.921 688.466 474.146C687.838 474.371 687.062 474.484 686.137 474.484H684.982V479H682.297V466.305H686.351ZM686.208 468.51H684.982V472.279H685.871C686.38 472.279 686.819 472.214 687.186 472.084C687.554 471.953 687.838 471.746 688.04 471.461C688.241 471.177 688.342 470.81 688.342 470.359C688.342 469.731 688.17 469.269 687.826 468.972C687.483 468.664 686.943 468.51 686.208 468.51ZM701.515 468.19H695.755V471.23C696.004 470.922 696.359 470.673 696.822 470.484C697.284 470.282 697.776 470.181 698.297 470.181C699.246 470.181 700.022 470.389 700.626 470.804C701.231 471.218 701.669 471.752 701.942 472.404C702.215 473.044 702.351 473.731 702.351 474.466C702.351 475.829 701.96 476.926 701.178 477.755C700.407 478.585 699.305 479 697.871 479C696.519 479 695.441 478.662 694.635 477.987C693.829 477.311 693.372 476.428 693.266 475.337H695.684C695.79 475.812 696.027 476.191 696.395 476.475C696.774 476.76 697.254 476.902 697.835 476.902C698.534 476.902 699.062 476.683 699.417 476.244C699.773 475.806 699.951 475.225 699.951 474.502C699.951 473.767 699.767 473.21 699.4 472.83C699.044 472.439 698.517 472.244 697.817 472.244C697.319 472.244 696.905 472.368 696.573 472.617C696.241 472.866 696.004 473.198 695.862 473.613H693.479V466.003H701.515V468.19Z" fill="#635D5D"/>
<path d="M344.967 466.305C346.603 466.305 347.794 466.661 348.541 467.372C349.299 468.071 349.679 469.038 349.679 470.27C349.679 470.827 349.596 471.361 349.43 471.87C349.264 472.368 348.985 472.819 348.594 473.222C348.215 473.613 347.711 473.921 347.083 474.146C346.455 474.371 345.678 474.484 344.754 474.484H343.598V479H340.913V466.305H344.967ZM344.825 468.51H343.598V472.279H344.487C344.997 472.279 345.435 472.214 345.803 472.084C346.17 471.953 346.455 471.746 346.656 471.461C346.858 471.177 346.958 470.81 346.958 470.359C346.958 469.731 346.787 469.269 346.443 468.972C346.099 468.664 345.56 468.51 344.825 468.51ZM352.202 476.191C353.34 475.243 354.247 474.454 354.922 473.826C355.598 473.186 356.161 472.522 356.611 471.835C357.062 471.147 357.287 470.472 357.287 469.808C357.287 469.203 357.145 468.729 356.86 468.386C356.576 468.042 356.137 467.87 355.545 467.87C354.952 467.87 354.496 468.071 354.176 468.474C353.856 468.866 353.69 469.405 353.678 470.092H351.26C351.307 468.67 351.728 467.591 352.522 466.857C353.328 466.122 354.347 465.754 355.58 465.754C356.931 465.754 357.969 466.116 358.692 466.839C359.415 467.55 359.776 468.492 359.776 469.666C359.776 470.59 359.527 471.473 359.029 472.315C358.532 473.156 357.963 473.891 357.323 474.52C356.683 475.136 355.847 475.883 354.816 476.76H360.061V478.822H351.278V476.973L352.202 476.191Z" fill="#635D5D"/>
<path d="M800.385 466.305C802.021 466.305 803.212 466.661 803.959 467.372C804.718 468.071 805.097 469.038 805.097 470.27C805.097 470.827 805.014 471.361 804.848 471.87C804.682 472.368 804.404 472.819 804.012 473.222C803.633 473.613 803.129 473.921 802.501 474.146C801.873 474.371 801.097 474.484 800.172 474.484H799.016V479H796.332V466.305H800.385ZM800.243 468.51H799.016V472.279H799.905C800.415 472.279 800.854 472.214 801.221 472.084C801.588 471.953 801.873 471.746 802.074 471.461C802.276 471.177 802.377 470.81 802.377 470.359C802.377 469.731 802.205 469.269 801.861 468.972C801.517 468.664 800.978 468.51 800.243 468.51ZM813.559 469.275C813.44 468.777 813.233 468.403 812.937 468.154C812.652 467.906 812.237 467.781 811.692 467.781C810.874 467.781 810.27 468.113 809.878 468.777C809.499 469.429 809.304 470.495 809.292 471.977C809.576 471.503 809.991 471.136 810.536 470.875C811.082 470.602 811.674 470.466 812.314 470.466C813.085 470.466 813.766 470.632 814.359 470.964C814.952 471.296 815.414 471.781 815.746 472.422C816.078 473.05 816.244 473.808 816.244 474.697C816.244 475.539 816.072 476.292 815.728 476.955C815.396 477.607 814.904 478.117 814.252 478.484C813.6 478.852 812.824 479.036 811.923 479.036C810.69 479.036 809.718 478.763 809.007 478.218C808.308 477.672 807.816 476.914 807.532 475.942C807.259 474.958 807.123 473.749 807.123 472.315C807.123 470.146 807.496 468.51 808.243 467.408C808.989 466.294 810.169 465.736 811.781 465.736C813.025 465.736 813.991 466.074 814.679 466.75C815.366 467.425 815.763 468.267 815.87 469.275H813.559ZM811.745 472.51C811.117 472.51 810.59 472.694 810.163 473.062C809.736 473.429 809.523 473.962 809.523 474.662C809.523 475.361 809.718 475.912 810.11 476.315C810.513 476.718 811.076 476.92 811.799 476.92C812.439 476.92 812.942 476.724 813.31 476.333C813.689 475.942 813.879 475.414 813.879 474.751C813.879 474.063 813.695 473.518 813.328 473.115C812.972 472.712 812.445 472.51 811.745 472.51Z" fill="#635D5D"/>
<path d="M572.194 466.305C573.83 466.305 575.021 466.661 575.768 467.372C576.527 468.071 576.906 469.038 576.906 470.27C576.906 470.827 576.823 471.361 576.657 471.87C576.491 472.368 576.213 472.819 575.821 473.222C575.442 473.613 574.938 473.921 574.31 474.146C573.682 474.371 572.906 474.484 571.981 474.484H570.825V479H568.141V466.305H572.194ZM572.052 468.51H570.825V472.279H571.714C572.224 472.279 572.663 472.214 573.03 472.084C573.397 471.953 573.682 471.746 573.883 471.461C574.085 471.177 574.186 470.81 574.186 470.359C574.186 469.731 574.014 469.269 573.67 468.972C573.326 468.664 572.787 468.51 572.052 468.51ZM578.54 476.475V474.52L584.354 466.199H587.252V474.306H588.817V476.475H587.252V479H584.763V476.475H578.54ZM584.923 468.866L581.279 474.306H584.923V468.866Z" fill="#635D5D"/>
<path d="M1028.36 466.305C1030 466.305 1031.19 466.661 1031.93 467.372C1032.69 468.071 1033.07 469.038 1033.07 470.27C1033.07 470.827 1032.99 471.361 1032.82 471.87C1032.66 472.368 1032.38 472.819 1031.99 473.222C1031.61 473.613 1031.1 473.921 1030.48 474.146C1029.85 474.371 1029.07 474.484 1028.15 474.484H1026.99V479H1024.31V466.305H1028.36ZM1028.22 468.51H1026.99V472.279H1027.88C1028.39 472.279 1028.83 472.214 1029.2 472.084C1029.56 471.953 1029.85 471.746 1030.05 471.461C1030.25 471.177 1030.35 470.81 1030.35 470.359C1030.35 469.731 1030.18 469.269 1029.84 468.972C1029.49 468.664 1028.95 468.51 1028.22 468.51ZM1036.98 472.137C1035.8 471.521 1035.2 470.567 1035.2 469.275C1035.2 468.635 1035.36 468.054 1035.68 467.532C1036.02 466.999 1036.51 466.578 1037.16 466.27C1037.82 465.95 1038.63 465.79 1039.58 465.79C1040.53 465.79 1041.33 465.95 1041.98 466.27C1042.64 466.578 1043.13 466.999 1043.45 467.532C1043.78 468.054 1043.95 468.635 1043.95 469.275C1043.95 469.926 1043.79 470.501 1043.47 470.999C1043.15 471.485 1042.72 471.864 1042.19 472.137C1042.84 472.422 1043.35 472.836 1043.72 473.382C1044.09 473.927 1044.27 474.573 1044.27 475.32C1044.27 476.126 1044.06 476.831 1043.65 477.435C1043.25 478.028 1042.69 478.484 1041.98 478.804C1041.27 479.124 1040.47 479.284 1039.58 479.284C1038.69 479.284 1037.89 479.124 1037.18 478.804C1036.48 478.484 1035.92 478.028 1035.51 477.435C1035.1 476.831 1034.9 476.126 1034.9 475.32C1034.9 474.573 1035.08 473.927 1035.45 473.382C1035.82 472.825 1036.33 472.41 1036.98 472.137ZM1041.53 469.63C1041.53 469.049 1041.35 468.599 1041 468.279C1040.66 467.959 1040.18 467.799 1039.58 467.799C1038.98 467.799 1038.51 467.959 1038.15 468.279C1037.81 468.599 1037.64 469.055 1037.64 469.648C1037.64 470.181 1037.82 470.608 1038.17 470.928C1038.54 471.248 1039.01 471.408 1039.58 471.408C1040.15 471.408 1040.61 471.248 1040.98 470.928C1041.35 470.596 1041.53 470.164 1041.53 469.63ZM1039.58 473.222C1038.9 473.222 1038.35 473.394 1037.92 473.737C1037.51 474.081 1037.3 474.573 1037.3 475.213C1037.3 475.806 1037.5 476.292 1037.91 476.671C1038.32 477.038 1038.88 477.222 1039.58 477.222C1040.28 477.222 1040.83 477.032 1041.23 476.653C1041.63 476.274 1041.84 475.794 1041.84 475.213C1041.84 474.585 1041.63 474.099 1041.21 473.755C1040.8 473.399 1040.25 473.222 1039.58 473.222Z" fill="#635D5D"/>
<path d="M458.75 466.305C460.386 466.305 461.577 466.661 462.324 467.372C463.082 468.071 463.462 469.038 463.462 470.27C463.462 470.827 463.379 471.361 463.213 471.87C463.047 472.368 462.768 472.819 462.377 473.222C461.998 473.613 461.494 473.921 460.866 474.146C460.238 474.371 459.461 474.484 458.537 474.484H457.381V479H454.696V466.305H458.75ZM458.608 468.51H457.381V472.279H458.27C458.78 472.279 459.218 472.214 459.586 472.084C459.953 471.953 460.238 471.746 460.439 471.461C460.641 471.177 460.741 470.81 460.741 470.359C460.741 469.731 460.569 469.269 460.226 468.972C459.882 468.664 459.343 468.51 458.608 468.51ZM465.238 469.452C465.298 468.267 465.712 467.354 466.483 466.714C467.265 466.062 468.29 465.736 469.559 465.736C470.424 465.736 471.165 465.891 471.781 466.199C472.398 466.495 472.86 466.904 473.168 467.425C473.488 467.935 473.648 468.516 473.648 469.168C473.648 469.915 473.452 470.549 473.061 471.07C472.682 471.58 472.226 471.924 471.692 472.102V472.173C472.38 472.386 472.913 472.765 473.292 473.311C473.684 473.856 473.879 474.555 473.879 475.409C473.879 476.12 473.713 476.754 473.381 477.311C473.061 477.868 472.581 478.307 471.941 478.627C471.313 478.935 470.554 479.089 469.665 479.089C468.326 479.089 467.236 478.751 466.394 478.075C465.552 477.4 465.108 476.404 465.061 475.088H467.479C467.502 475.669 467.698 476.137 468.065 476.493C468.445 476.837 468.96 477.009 469.612 477.009C470.217 477.009 470.679 476.843 470.999 476.511C471.331 476.167 471.497 475.729 471.497 475.195C471.497 474.484 471.272 473.974 470.821 473.666C470.371 473.358 469.671 473.204 468.723 473.204H468.208V471.159H468.723C470.406 471.159 471.248 470.596 471.248 469.47C471.248 468.96 471.094 468.563 470.786 468.279C470.489 467.994 470.057 467.852 469.488 467.852C468.931 467.852 468.498 468.006 468.19 468.314C467.893 468.611 467.722 468.99 467.674 469.452H465.238Z" fill="#635D5D"/>
<path d="M915.201 466.305C916.837 466.305 918.028 466.661 918.775 467.372C919.534 468.071 919.913 469.038 919.913 470.27C919.913 470.827 919.83 471.361 919.664 471.87C919.498 472.368 919.22 472.819 918.828 473.222C918.449 473.613 917.945 473.921 917.317 474.146C916.689 474.371 915.913 474.484 914.988 474.484H913.832V479H911.148V466.305H915.201ZM915.059 468.51H913.832V472.279H914.721C915.231 472.279 915.67 472.214 916.037 472.084C916.405 471.953 916.689 471.746 916.891 471.461C917.092 471.177 917.193 470.81 917.193 470.359C917.193 469.731 917.021 469.269 916.677 468.972C916.333 468.664 915.794 468.51 915.059 468.51ZM929.904 467.923L925.175 479H922.65L927.415 468.208H921.334V466.074H929.904V467.923Z" fill="#635D5D"/>
<path d="M18.7369 144V129.72H29.4569V144H27.6769V131.3H20.5369V144H18.7369ZM42.4458 138.62C42.4458 139.513 42.3258 140.307 42.0858 141C41.8591 141.68 41.5258 142.26 41.0858 142.74C40.6591 143.22 40.1324 143.587 39.5058 143.84C38.8924 144.08 38.2058 144.2 37.4458 144.2C36.7391 144.2 36.0858 144.08 35.4858 143.84C34.8858 143.587 34.3658 143.22 33.9258 142.74C33.4858 142.26 33.1391 141.68 32.8858 141C32.6458 140.307 32.5258 139.513 32.5258 138.62C32.5258 137.433 32.7258 136.433 33.1258 135.62C33.5258 134.793 34.0991 134.167 34.8458 133.74C35.5924 133.3 36.4791 133.08 37.5058 133.08C38.4791 133.08 39.3324 133.3 40.0658 133.74C40.8124 134.167 41.3924 134.793 41.8058 135.62C42.2324 136.433 42.4458 137.433 42.4458 138.62ZM34.3458 138.62C34.3458 139.46 34.4524 140.193 34.6658 140.82C34.8924 141.433 35.2391 141.907 35.7058 142.24C36.1724 142.573 36.7658 142.74 37.4858 142.74C38.2058 142.74 38.7991 142.573 39.2658 142.24C39.7324 141.907 40.0724 141.433 40.2858 140.82C40.5124 140.193 40.6258 139.46 40.6258 138.62C40.6258 137.767 40.5124 137.04 40.2858 136.44C40.0591 135.84 39.7124 135.38 39.2458 135.06C38.7924 134.727 38.1991 134.56 37.4658 134.56C36.3724 134.56 35.5791 134.92 35.0858 135.64C34.5924 136.36 34.3458 137.353 34.3458 138.62ZM54.2952 133.28V144H52.5352V134.78H46.9952V144H45.2352V133.28H54.2952ZM57.7156 144V133.28H59.4756V137.68H62.2556C63.189 137.68 63.9556 137.793 64.5556 138.02C65.1556 138.247 65.6023 138.587 65.8956 139.04C66.189 139.48 66.3356 140.04 66.3356 140.72C66.3356 141.387 66.189 141.967 65.8956 142.46C65.6156 142.953 65.169 143.333 64.5556 143.6C63.9556 143.867 63.1623 144 62.1756 144H57.7156ZM62.0156 142.58C62.7756 142.58 63.3956 142.453 63.8756 142.2C64.3556 141.933 64.5956 141.473 64.5956 140.82C64.5956 140.167 64.3756 139.727 63.9356 139.5C63.4956 139.26 62.8623 139.14 62.0356 139.14H59.4756V142.58H62.0156ZM68.1156 144V133.28H69.8756V144H68.1156ZM80.682 134.76H77.182V144H75.442V134.76H71.982V133.28H80.682V134.76ZM89.1338 133.28H91.0538L86.4738 138.44L91.4338 144H89.3938L84.5538 138.56V144H82.7938V133.28H84.5538V138.48L89.1338 133.28ZM97.4397 133.1C98.7464 133.1 99.713 133.387 100.34 133.96C100.966 134.533 101.28 135.447 101.28 136.7V144H99.9997L99.6597 142.48H99.5797C99.273 142.867 98.953 143.193 98.6197 143.46C98.2997 143.713 97.9264 143.9 97.4997 144.02C97.0864 144.14 96.5797 144.2 95.9797 144.2C95.3397 144.2 94.7597 144.087 94.2397 143.86C93.733 143.633 93.333 143.287 93.0397 142.82C92.7464 142.34 92.5997 141.74 92.5997 141.02C92.5997 139.953 93.0197 139.133 93.8597 138.56C94.6997 137.973 95.993 137.653 97.7397 137.6L99.5597 137.54V136.9C99.5597 136.007 99.3664 135.387 98.9797 135.04C98.593 134.693 98.0464 134.52 97.3397 134.52C96.7797 134.52 96.2464 134.607 95.7397 134.78C95.233 134.94 94.7597 135.127 94.3197 135.34L93.7797 134.02C94.2464 133.767 94.7997 133.553 95.4397 133.38C96.0797 133.193 96.7464 133.1 97.4397 133.1ZM97.9597 138.82C96.6264 138.873 95.6997 139.087 95.1797 139.46C94.673 139.833 94.4197 140.36 94.4197 141.04C94.4197 141.64 94.5997 142.08 94.9597 142.36C95.333 142.64 95.8064 142.78 96.3797 142.78C97.2864 142.78 98.0397 142.533 98.6397 142.04C99.2397 141.533 99.5397 140.76 99.5397 139.72V138.76L97.9597 138.82ZM109.423 133.18C109.516 131.953 109.989 130.993 110.843 130.3C111.696 129.607 112.803 129.26 114.163 129.26C115.069 129.26 115.849 129.427 116.503 129.76C117.169 130.08 117.669 130.52 118.003 131.08C118.349 131.64 118.523 132.273 118.523 132.98C118.523 133.807 118.283 134.52 117.803 135.12C117.336 135.72 116.723 136.107 115.963 136.28V136.38C116.829 136.593 117.516 137.013 118.023 137.64C118.529 138.267 118.783 139.087 118.783 140.1C118.783 140.86 118.609 141.547 118.263 142.16C117.916 142.76 117.396 143.233 116.703 143.58C116.009 143.927 115.176 144.1 114.203 144.1C112.789 144.1 111.629 143.733 110.723 143C109.816 142.253 109.309 141.2 109.203 139.84H110.963C111.056 140.64 111.383 141.293 111.943 141.8C112.503 142.307 113.249 142.56 114.183 142.56C115.116 142.56 115.823 142.32 116.303 141.84C116.796 141.347 117.043 140.713 117.043 139.94C117.043 138.94 116.709 138.22 116.043 137.78C115.376 137.34 114.369 137.12 113.023 137.12H112.563V135.6H113.043C114.269 135.587 115.196 135.387 115.823 135C116.449 134.6 116.763 133.987 116.763 133.16C116.763 132.453 116.529 131.887 116.063 131.46C115.609 131.033 114.956 130.82 114.103 130.82C113.276 130.82 112.609 131.033 112.103 131.46C111.596 131.887 111.296 132.46 111.203 133.18H109.423Z" fill="#635D5D"/>
<path d="M19.0103 241V226.72H29.7303V241H27.9503V228.3H20.8103V241H19.0103ZM42.7192 235.62C42.7192 236.513 42.5992 237.307 42.3592 238C42.1326 238.68 41.7992 239.26 41.3592 239.74C40.9326 240.22 40.4059 240.587 39.7792 240.84C39.1659 241.08 38.4792 241.2 37.7192 241.2C37.0126 241.2 36.3592 241.08 35.7592 240.84C35.1592 240.587 34.6392 240.22 34.1992 239.74C33.7592 239.26 33.4126 238.68 33.1592 238C32.9192 237.307 32.7992 236.513 32.7992 235.62C32.7992 234.433 32.9992 233.433 33.3992 232.62C33.7992 231.793 34.3726 231.167 35.1192 230.74C35.8659 230.3 36.7526 230.08 37.7792 230.08C38.7526 230.08 39.6059 230.3 40.3392 230.74C41.0859 231.167 41.6659 231.793 42.0792 232.62C42.5059 233.433 42.7192 234.433 42.7192 235.62ZM34.6192 235.62C34.6192 236.46 34.7259 237.193 34.9392 237.82C35.1659 238.433 35.5126 238.907 35.9792 239.24C36.4459 239.573 37.0392 239.74 37.7592 239.74C38.4792 239.74 39.0726 239.573 39.5392 239.24C40.0059 238.907 40.3459 238.433 40.5592 237.82C40.7859 237.193 40.8992 236.46 40.8992 235.62C40.8992 234.767 40.7859 234.04 40.5592 233.44C40.3326 232.84 39.9859 232.38 39.5192 232.06C39.0659 231.727 38.4726 231.56 37.7392 231.56C36.6459 231.56 35.8526 231.92 35.3592 232.64C34.8659 233.36 34.6192 234.353 34.6192 235.62ZM54.5686 230.28V241H52.8086V231.78H47.2686V241H45.5086V230.28H54.5686ZM57.9891 241V230.28H59.7491V234.68H62.5291C63.4624 234.68 64.2291 234.793 64.8291 235.02C65.4291 235.247 65.8757 235.587 66.1691 236.04C66.4624 236.48 66.6091 237.04 66.6091 237.72C66.6091 238.387 66.4624 238.967 66.1691 239.46C65.8891 239.953 65.4424 240.333 64.8291 240.6C64.2291 240.867 63.4357 241 62.4491 241H57.9891ZM62.2891 239.58C63.0491 239.58 63.6691 239.453 64.1491 239.2C64.6291 238.933 64.8691 238.473 64.8691 237.82C64.8691 237.167 64.6491 236.727 64.2091 236.5C63.7691 236.26 63.1357 236.14 62.3091 236.14H59.7491V239.58H62.2891ZM68.3891 241V230.28H70.1491V241H68.3891ZM80.9555 231.76H77.4555V241H75.7155V231.76H72.2555V230.28H80.9555V231.76ZM89.4072 230.28H91.3272L86.7472 235.44L91.7072 241H89.6672L84.8272 235.56V241H83.0672V230.28H84.8272V235.48L89.4072 230.28ZM97.7131 230.1C99.0198 230.1 99.9865 230.387 100.613 230.96C101.24 231.533 101.553 232.447 101.553 233.7V241H100.273L99.9331 239.48H99.8531C99.5465 239.867 99.2265 240.193 98.8931 240.46C98.5731 240.713 98.1998 240.9 97.7731 241.02C97.3598 241.14 96.8531 241.2 96.2531 241.2C95.6131 241.2 95.0331 241.087 94.5131 240.86C94.0065 240.633 93.6065 240.287 93.3131 239.82C93.0198 239.34 92.8731 238.74 92.8731 238.02C92.8731 236.953 93.2931 236.133 94.1331 235.56C94.9731 234.973 96.2665 234.653 98.0131 234.6L99.8331 234.54V233.9C99.8331 233.007 99.6398 232.387 99.2531 232.04C98.8665 231.693 98.3198 231.52 97.6131 231.52C97.0531 231.52 96.5198 231.607 96.0131 231.78C95.5065 231.94 95.0331 232.127 94.5931 232.34L94.0531 231.02C94.5198 230.767 95.0731 230.553 95.7131 230.38C96.3531 230.193 97.0198 230.1 97.7131 230.1ZM98.2331 235.82C96.8998 235.873 95.9731 236.087 95.4531 236.46C94.9465 236.833 94.6931 237.36 94.6931 238.04C94.6931 238.64 94.8731 239.08 95.2331 239.36C95.6065 239.64 96.0798 239.78 96.6531 239.78C97.5598 239.78 98.3131 239.533 98.9131 239.04C99.5131 238.533 99.8131 237.76 99.8131 236.72V235.76L98.2331 235.82ZM109.516 239.54C111.209 238.18 112.536 237.067 113.496 236.2C114.456 235.32 115.263 234.407 115.916 233.46C116.583 232.5 116.916 231.56 116.916 230.64C116.916 229.773 116.703 229.093 116.276 228.6C115.863 228.093 115.189 227.84 114.256 227.84C113.349 227.84 112.643 228.127 112.136 228.7C111.643 229.26 111.376 230.013 111.336 230.96H109.576C109.629 229.467 110.083 228.313 110.936 227.5C111.789 226.687 112.889 226.28 114.236 226.28C115.609 226.28 116.696 226.66 117.496 227.42C118.309 228.18 118.716 229.227 118.716 230.56C118.716 231.667 118.383 232.747 117.716 233.8C117.063 234.84 116.316 235.76 115.476 236.56C114.636 237.347 113.563 238.267 112.256 239.32H119.136V240.84H109.516V239.54Z" fill="#635D5D"/>
<path d="M22.1373 49H20.3373V42.34H13.0173V49H11.2173V34.72H13.0173V40.76H20.3373V34.72H22.1373V49ZM29.9416 38.08C30.8616 38.08 31.6482 38.28 32.3016 38.68C32.9682 39.08 33.4749 39.6467 33.8216 40.38C34.1816 41.1 34.3616 41.9467 34.3616 42.92V43.98H27.0216C27.0482 45.1933 27.3549 46.12 27.9416 46.76C28.5416 47.3867 29.3749 47.7 30.4416 47.7C31.1216 47.7 31.7216 47.64 32.2416 47.52C32.7749 47.3867 33.3216 47.2 33.8816 46.96V48.5C33.3349 48.74 32.7949 48.9133 32.2616 49.02C31.7282 49.14 31.0949 49.2 30.3616 49.2C29.3482 49.2 28.4482 48.9933 27.6616 48.58C26.8882 48.1667 26.2816 47.5533 25.8416 46.74C25.4149 45.9133 25.2016 44.9067 25.2016 43.72C25.2016 42.5467 25.3949 41.54 25.7816 40.7C26.1816 39.86 26.7349 39.2133 27.4416 38.76C28.1616 38.3067 28.9949 38.08 29.9416 38.08ZM29.9216 39.52C29.0816 39.52 28.4149 39.7933 27.9216 40.34C27.4416 40.8733 27.1549 41.62 27.0616 42.58H32.5216C32.5216 41.9667 32.4282 41.4333 32.2416 40.98C32.0549 40.5267 31.7682 40.1733 31.3816 39.92C31.0082 39.6533 30.5216 39.52 29.9216 39.52ZM51.4827 38.28V49H49.7227V39.78H44.1827V49H42.4227V38.28H51.4827ZM60.0031 38.08C61.3231 38.08 62.3831 38.54 63.1831 39.46C63.9965 40.38 64.4031 41.7667 64.4031 43.62C64.4031 44.8333 64.2165 45.86 63.8431 46.7C63.4831 47.5267 62.9698 48.1533 62.3031 48.58C61.6498 48.9933 60.8765 49.2 59.9831 49.2C59.4365 49.2 58.9498 49.1267 58.5231 48.98C58.0965 48.8333 57.7298 48.6467 57.4231 48.42C57.1298 48.18 56.8765 47.92 56.6631 47.64H56.5431C56.5698 47.8667 56.5965 48.1533 56.6231 48.5C56.6498 48.8467 56.6631 49.1467 56.6631 49.4V53.8H54.9031V38.28H56.3431L56.5831 39.74H56.6631C56.8765 39.4333 57.1298 39.1533 57.4231 38.9C57.7298 38.6467 58.0898 38.4467 58.5031 38.3C58.9298 38.1533 59.4298 38.08 60.0031 38.08ZM59.6831 39.56C58.9631 39.56 58.3831 39.7 57.9431 39.98C57.5031 40.2467 57.1831 40.6533 56.9831 41.2C56.7831 41.7467 56.6765 42.44 56.6631 43.28V43.62C56.6631 44.5 56.7565 45.2467 56.9431 45.86C57.1298 46.4733 57.4431 46.94 57.8831 47.26C58.3365 47.58 58.9498 47.74 59.7231 47.74C60.3765 47.74 60.9098 47.56 61.3231 47.2C61.7498 46.84 62.0631 46.3533 62.2631 45.74C62.4765 45.1133 62.5831 44.4 62.5831 43.6C62.5831 42.3733 62.3431 41.3933 61.8631 40.66C61.3965 39.9267 60.6698 39.56 59.6831 39.56ZM76.5278 43.62C76.5278 44.5133 76.4078 45.3067 76.1678 46C75.9411 46.68 75.6078 47.26 75.1678 47.74C74.7411 48.22 74.2145 48.5867 73.5878 48.84C72.9745 49.08 72.2878 49.2 71.5278 49.2C70.8211 49.2 70.1678 49.08 69.5678 48.84C68.9678 48.5867 68.4478 48.22 68.0078 47.74C67.5678 47.26 67.2211 46.68 66.9678 46C66.7278 45.3067 66.6078 44.5133 66.6078 43.62C66.6078 42.4333 66.8078 41.4333 67.2078 40.62C67.6078 39.7933 68.1811 39.1667 68.9278 38.74C69.6745 38.3 70.5611 38.08 71.5878 38.08C72.5611 38.08 73.4145 38.3 74.1478 38.74C74.8945 39.1667 75.4745 39.7933 75.8878 40.62C76.3145 41.4333 76.5278 42.4333 76.5278 43.62ZM68.4278 43.62C68.4278 44.46 68.5345 45.1933 68.7478 45.82C68.9745 46.4333 69.3211 46.9067 69.7878 47.24C70.2545 47.5733 70.8478 47.74 71.5678 47.74C72.2878 47.74 72.8811 47.5733 73.3478 47.24C73.8145 46.9067 74.1545 46.4333 74.3678 45.82C74.5945 45.1933 74.7078 44.46 74.7078 43.62C74.7078 42.7667 74.5945 42.04 74.3678 41.44C74.1411 40.84 73.7945 40.38 73.3278 40.06C72.8745 39.7267 72.2811 39.56 71.5478 39.56C70.4545 39.56 69.6611 39.92 69.1678 40.64C68.6745 41.36 68.4278 42.3533 68.4278 43.62ZM93.8572 38.28V49H79.3172V38.28H81.0772V47.52H85.6972V38.28H87.4572V47.52H92.0972V38.28H93.8572ZM105.446 49H103.666V39.74H100.506C100.373 41.4333 100.206 42.88 100.006 44.08C99.8059 45.2667 99.5526 46.2333 99.2459 46.98C98.9393 47.7267 98.5726 48.2733 98.1459 48.62C97.7193 48.9667 97.2193 49.14 96.6459 49.14C96.4726 49.14 96.2993 49.1267 96.1259 49.1C95.9659 49.0867 95.8326 49.0533 95.7259 49V47.68C95.8059 47.7067 95.8926 47.7267 95.9859 47.74C96.0793 47.7533 96.1726 47.76 96.2659 47.76C96.5593 47.76 96.8259 47.64 97.0659 47.4C97.3059 47.16 97.5193 46.7933 97.7059 46.3C97.9059 45.8067 98.0859 45.1867 98.2459 44.44C98.4059 43.68 98.5459 42.7867 98.6659 41.76C98.7859 40.7333 98.8926 39.5733 98.9859 38.28H105.446V49ZM110.508 44.82C110.508 44.94 110.502 45.1133 110.488 45.34C110.488 45.5533 110.482 45.7867 110.468 46.04C110.455 46.28 110.442 46.5133 110.428 46.74C110.415 46.9533 110.402 47.1267 110.388 47.26L116.128 38.28H118.288V49H116.648V42.68C116.648 42.4667 116.648 42.1867 116.648 41.84C116.662 41.4933 116.675 41.1533 116.688 40.82C116.702 40.4733 116.715 40.2133 116.728 40.04L111.028 49H108.848V38.28H110.508V44.82Z" fill="#635D5D"/>
<path d="M236 336.333C238.946 336.333 241.333 333.946 241.333 331C241.333 328.054 238.946 325.667 236 325.667C233.054 325.667 230.667 328.054 230.667 331C230.667 333.946 233.054 336.333 236 336.333ZM237 426L237 331L235 331L235 426L237 426Z" fill="#635D5D"/>
<path d="M464 239.333C466.946 239.333 469.333 236.946 469.333 234C469.333 231.054 466.946 228.667 464 228.667C461.054 228.667 458.667 231.054 458.667 234C458.667 236.946 461.054 239.333 464 239.333ZM465 426L465 234L463 234L463 426L465 426Z" fill="#FF0303"/>
<path d="M806 336.333C808.946 336.333 811.333 333.946 811.333 331C811.333 328.054 808.946 325.667 806 325.667C803.054 325.667 800.667 328.054 800.667 331C800.667 333.946 803.054 336.333 806 336.333ZM807 426L807 331L805 331L805 426L807 426Z" fill="#635D5D"/>
<path d="M1034 145.333C1036.95 145.333 1039.33 142.946 1039.33 140C1039.33 137.054 1036.95 134.667 1034 134.667C1031.05 134.667 1028.67 137.054 1028.67 140C1028.67 142.946 1031.05 145.333 1034 145.333ZM1035 426L1035 140L1033 140L1033 426L1035 426Z" fill="#FF0303"/>
<path d="M350 336.333C352.946 336.333 355.333 333.946 355.333 331C355.333 328.054 352.946 325.667 350 325.667C347.054 325.667 344.667 328.054 344.667 331C344.667 333.946 347.054 336.333 350 336.333ZM351 426L351 331L349 331L349 426L351 426Z" fill="#635D5D"/>
<path d="M692 145.333C694.946 145.333 697.333 142.946 697.333 140C697.333 137.054 694.946 134.667 692 134.667C689.054 134.667 686.667 137.054 686.667 140C686.667 142.946 689.054 145.333 692 145.333ZM693 426L693 140L691 140L691 426L693 426Z" fill="#FF0303"/>
<path d="M578 335.333C580.946 335.333 583.333 332.946 583.333 330C583.333 327.054 580.946 324.667 578 324.667C575.054 324.667 572.667 327.054 572.667 330C572.667 332.946 575.054 335.333 578 335.333ZM579 426L579 330L577 330L577 426L579 426Z" fill="#635D5D"/>
<path d="M920 48.3333C922.946 48.3333 925.333 45.9455 925.333 43C925.333 40.0545 922.946 37.6667 920 37.6667C917.054 37.6667 914.667 40.0545 914.667 43C914.667 45.9455 917.054 48.3333 920 48.3333ZM921 426L921 43L919 43L919 426L921 426Z" fill="#FF0303"/>
</g>
<defs>
<clipPath id="clip0_1137_7705">
<rect width="1108" height="505" fill="white"/>
</clipPath>
</defs>
</svg>
