<svg width="89" height="29" viewBox="0 0 89 29" fill="none" xmlns="http://www.w3.org/2000/svg">
<g clip-path="url(#clip0_438_21633)">
<path d="M16.9462 0.920088C18.5462 0.920088 20.0396 1.04009 21.4262 1.28009C22.8396 1.49342 24.2796 1.92009 25.7462 2.56009C27.2129 3.20009 28.4529 4.02679 29.4662 5.04009C30.5062 6.05339 31.3462 7.41339 31.9862 9.12009C32.6529 10.8268 32.9862 12.8001 32.9862 15.0401C32.9862 19.5468 31.5596 23.0001 28.7062 25.4001C25.8796 27.8001 21.8129 29.0001 16.5062 29.0001C14.4262 29.0001 12.5062 28.7468 10.7462 28.2401C9.01287 27.7068 7.54617 27.0001 6.34617 26.1201C5.14617 25.2401 4.11954 24.2134 3.26621 23.0401C2.43954 21.8401 1.82621 20.5868 1.42621 19.2801C1.05287 17.9734 0.866211 16.6134 0.866211 15.2001C0.866211 10.8001 2.30621 7.32009 5.18617 4.76009C8.06617 2.20009 11.9862 0.920088 16.9462 0.920088ZM16.9462 21.7601C17.3729 21.7601 17.7196 21.7601 17.9862 21.7601C18.2529 21.7601 18.6262 21.7201 19.1062 21.6401C19.6129 21.5334 20.0262 21.4001 20.3462 21.2401C20.6929 21.0801 21.0662 20.8401 21.4662 20.5201C21.8929 20.2001 22.2262 19.8134 22.4662 19.3601C22.7062 18.8801 22.9062 18.2801 23.0662 17.5601C23.2529 16.8134 23.3462 15.9734 23.3462 15.0401C23.3462 14.1068 23.2529 13.2668 23.0662 12.5201C22.9062 11.7468 22.7062 11.1334 22.4662 10.6801C22.2262 10.2001 21.8929 9.78679 21.4662 9.44009C21.0662 9.09339 20.6929 8.84009 20.3462 8.68009C20.0262 8.52009 19.6129 8.40009 19.1062 8.32009C18.6262 8.24009 18.2529 8.20009 17.9862 8.20009C17.7196 8.17339 17.3729 8.16009 16.9462 8.16009C16.7062 8.16009 16.5062 8.16009 16.3462 8.16009C16.2129 8.16009 15.9862 8.17339 15.6662 8.20009C15.3462 8.22679 15.0662 8.28009 14.8262 8.36009C14.6129 8.41339 14.3329 8.49339 13.9862 8.60009C13.6662 8.70679 13.3862 8.85339 13.1462 9.04009C12.9062 9.22679 12.6396 9.44009 12.3462 9.68009C12.0529 9.92009 11.8129 10.2268 11.6262 10.6001C11.4396 10.9468 11.2529 11.3334 11.0662 11.7601C10.9062 12.1868 10.7729 12.6934 10.6662 13.2801C10.5862 13.8668 10.5462 14.5068 10.5462 15.2001C10.5462 16.1068 10.6262 16.9201 10.7862 17.6401C10.9462 18.3334 11.1462 18.9068 11.3862 19.3601C11.6262 19.8134 11.9462 20.2134 12.3462 20.5601C12.7462 20.8801 13.1062 21.1201 13.4262 21.2801C13.7462 21.4134 14.1596 21.5334 14.6662 21.6401C15.1729 21.7201 15.5596 21.7601 15.8262 21.7601C16.0929 21.7601 16.4662 21.7601 16.9462 21.7601ZM57.6022 19.7601C56.8022 19.8668 55.9088 19.9868 54.9222 20.1201C53.9355 20.2534 53.2422 20.3468 52.8422 20.4001C52.4422 20.4534 52.0288 20.5468 51.6022 20.6801C51.2022 20.7868 50.8822 20.9201 50.6422 21.0801H70.6822V29.0001H44.1622H40.0022V25.6001H40.0422C40.0422 24.2401 40.2422 23.0001 40.6422 21.8801C41.0422 20.7334 41.5222 19.7734 42.0822 19.0001C42.6422 18.2001 43.4155 17.4801 44.4022 16.8401C45.3888 16.2001 46.2688 15.7068 47.0422 15.3601C47.8155 14.9868 48.8288 14.6401 50.0822 14.3201C51.3622 13.9734 52.3355 13.7468 53.0022 13.6401C53.6955 13.5068 54.6422 13.3334 55.8422 13.1201C55.9488 13.1201 56.0288 13.1068 56.0822 13.0801C57.5222 12.8668 58.6555 12.6134 59.4822 12.3201C60.3355 12.0268 60.9222 11.7068 61.2422 11.3601C61.5888 10.9868 61.7622 10.5468 61.7622 10.0401C61.7622 9.80009 61.6822 9.57339 61.5222 9.36009C61.3888 9.14679 61.1355 8.93339 60.7622 8.72009C60.3888 8.48009 59.8155 8.29339 59.0422 8.16009C58.2688 8.02679 57.3222 7.96009 56.2022 7.96009C55.3222 7.96009 54.5355 8.02679 53.8422 8.16009C53.1488 8.26679 52.5755 8.41339 52.1222 8.60009C51.6955 8.76009 51.3222 9.00009 51.0022 9.32009C50.7088 9.61339 50.4822 9.86679 50.3222 10.0801C50.1888 10.2668 50.0688 10.5468 49.9622 10.9201C49.8822 11.2668 49.8422 11.5068 49.8422 11.6401C49.8422 11.7468 49.8288 11.9334 49.8022 12.2001L44.1622 12.1601H40.0422C40.0422 11.8668 40.0555 11.5201 40.0822 11.1201C40.1355 10.7201 40.3355 10.0401 40.6822 9.08009C41.0555 8.12009 41.5488 7.22679 42.1622 6.40009C44.9622 2.69342 49.6422 0.840088 56.2022 0.840088C58.0155 0.840088 59.6688 0.960088 61.1622 1.20009C62.6822 1.41342 63.9488 1.70676 64.9622 2.08009C65.9755 2.42676 66.8688 2.86676 67.6422 3.40009C68.4422 3.90675 69.0688 4.42679 69.5222 4.96009C69.9755 5.49339 70.3355 6.08009 70.6022 6.72009C70.8955 7.36009 71.0822 7.94679 71.1622 8.48009C71.2688 8.98679 71.3222 9.50679 71.3222 10.0401C71.3222 10.8668 71.2155 11.6401 71.0022 12.3601C70.7888 13.0801 70.5222 13.7068 70.2022 14.2401C69.9088 14.7734 69.4822 15.2801 68.9222 15.7601C68.3888 16.2401 67.8822 16.6401 67.4022 16.9601C66.9488 17.2801 66.3355 17.5868 65.5622 17.8801C64.7888 18.1468 64.1355 18.3734 63.6022 18.5601C63.0955 18.7201 62.4022 18.8934 61.5222 19.0801C60.6688 19.2401 60.0155 19.3601 59.5622 19.4401C59.1088 19.5201 58.4555 19.6268 57.6022 19.7601ZM88.1187 29.0001H79.5587V22.0401H88.1187V29.0001Z" fill="#ECECF0"/>
</g>
<defs>
<clipPath id="clip0_438_21633">
<rect width="89" height="29" fill="white"/>
</clipPath>
</defs>
</svg>
